# xmcd CD database file
#
# Track frame offsets:
#	150
#	23176
#	41800
#	61848
#	76097
#	93990
#	114258
#	138069
#	151745
#	170642
#	196102
#	211674
#	227856
#
# Disc length: 3363 seconds
#
# Revision: 0
# Processed by: cddbd v1.5.2PL0 Copyright (c) Steve Scherf et al.
# Submitted via: CDex 1.70beta2
#
DISCID=960d210d
DTITLE=P.Personne et H.F.Thiefaine - Amicalement Blues
DYEAR=2007
DGENRE=Blues
TTITLE0=Avenue de l'amour
TTITLE1=Emeute emotionelle
TTITLE2=Amant sous controle
TTITLE3=Strindberg 2007
TTITLE4=L'appel de la foret
TTITLE5=Les douceurs de la vengeance
TTITLE6=Distance
TTITLE7=Rendez-vous au dernier carrefour
TTITLE8=Special ado sms blues
TTITLE9=Photographie d'un reveur
TTITLE10=Your Terraplane Is Ready Mister Bob !
TTITLE11=Juste avant l'enfer
TTITLE12=Le vieux bluesman et la bimbo
EXTD=YEAR: 2007
EXTT0=
EXTT1=
EXTT2=
EXTT3=
EXTT4=
EXTT5=
EXTT6=
EXTT7=
EXTT8=
EXTT9=
EXTT10=
EXTT11=
EXTT12=
PLAYORDER=
